<svg width="99" height="120" viewBox="0 0 99 120" fill="none" xmlns="http://www.w3.org/2000/svg">
<g filter="url(#filter0_d_288_13)">
<mask id="path-1-outside-1_288_13" maskUnits="userSpaceOnUse" x="2.72467" y="-1.49602" width="92.1439" height="114.7" fill="black">
<rect fill="white" x="2.72467" y="-1.49602" width="92.1439" height="114.7"/>
<path d="M30.6505 110.609C27.4937 110.549 24.7258 110.24 22.3467 109.682C19.9676 109.125 17.9009 107.847 16.1468 105.851C14.478 103.856 13.6827 100.811 13.761 96.7156C13.8703 90.9993 15.7235 83.3534 19.3206 73.7777C23.0029 64.2037 27.7526 54.6074 33.5695 44.9889C29.2988 45.1632 25.9165 45.7387 23.4227 46.7152C20.9289 47.6917 19.2777 49.2391 18.469 51.3573C18.8103 51.3639 19.1434 51.797 19.4684 52.6567C19.8786 53.518 20.0748 54.4179 20.0569 55.3564C20.0275 56.8921 19.3213 58.1162 17.9383 59.0286C16.5569 59.8557 14.8424 60.2496 12.7947 60.2105C10.4058 60.1648 8.49843 59.4882 7.0725 58.1807C5.64657 56.8732 4.95645 55.025 5.00212 52.6361C5.05759 49.7353 6.2173 47.1117 8.48124 44.7652C10.8305 42.4203 14.0231 40.6037 18.0592 39.3153C22.0968 37.9416 26.5472 37.3012 31.4103 37.3942C33.202 37.4285 35.4178 37.5988 38.0578 37.9054C45.2659 26.9478 52.8188 18.0453 60.7165 11.1977C68.7012 4.26639 76.2342 0.868456 83.3155 1.00386C87.4108 1.08217 90.7694 1.74383 93.3914 2.98886L71.498 96.7954L53.0694 96.4431L63.8119 50.176C60.6829 48.6652 57.8025 47.5433 55.1707 46.8102C52.5389 46.077 49.7324 45.554 46.7511 45.2409C41.6874 55.642 37.4719 66.3154 34.1047 77.261C30.8244 88.1229 29.1215 96.8386 28.9959 103.408C28.9339 106.65 29.4854 109.05 30.6505 110.609ZM73.1596 9.89933C69.4534 11.7915 65.544 15.3867 61.4313 20.6851C57.4055 25.8997 53.443 32.2678 49.5439 39.7893C55.6639 41.1012 60.8397 42.6938 65.0714 44.567L73.1596 9.89933Z"/>
</mask>
<path d="M30.6505 110.609C27.4937 110.549 24.7258 110.24 22.3467 109.682C19.9676 109.125 17.9009 107.847 16.1468 105.851C14.478 103.856 13.6827 100.811 13.761 96.7156C13.8703 90.9993 15.7235 83.3534 19.3206 73.7777C23.0029 64.2037 27.7526 54.6074 33.5695 44.9889C29.2988 45.1632 25.9165 45.7387 23.4227 46.7152C20.9289 47.6917 19.2777 49.2391 18.469 51.3573C18.8103 51.3639 19.1434 51.797 19.4684 52.6567C19.8786 53.518 20.0748 54.4179 20.0569 55.3564C20.0275 56.8921 19.3213 58.1162 17.9383 59.0286C16.5569 59.8557 14.8424 60.2496 12.7947 60.2105C10.4058 60.1648 8.49843 59.4882 7.0725 58.1807C5.64657 56.8732 4.95645 55.025 5.00212 52.6361C5.05759 49.7353 6.2173 47.1117 8.48124 44.7652C10.8305 42.4203 14.0231 40.6037 18.0592 39.3153C22.0968 37.9416 26.5472 37.3012 31.4103 37.3942C33.202 37.4285 35.4178 37.5988 38.0578 37.9054C45.2659 26.9478 52.8188 18.0453 60.7165 11.1977C68.7012 4.26639 76.2342 0.868456 83.3155 1.00386C87.4108 1.08217 90.7694 1.74383 93.3914 2.98886L71.498 96.7954L53.0694 96.4431L63.8119 50.176C60.6829 48.6652 57.8025 47.5433 55.1707 46.8102C52.5389 46.077 49.7324 45.554 46.7511 45.2409C41.6874 55.642 37.4719 66.3154 34.1047 77.261C30.8244 88.1229 29.1215 96.8386 28.9959 103.408C28.9339 106.65 29.4854 109.05 30.6505 110.609ZM73.1596 9.89933C69.4534 11.7915 65.544 15.3867 61.4313 20.6851C57.4055 25.8997 53.443 32.2678 49.5439 39.7893C55.6639 41.1012 60.8397 42.6938 65.0714 44.567L73.1596 9.89933Z" fill="white"/>
<path d="M30.6505 110.609L30.6314 111.609L32.6756 111.648L31.4514 110.01L30.6505 110.609ZM22.3467 109.682L22.5749 108.709L22.5749 108.709L22.3467 109.682ZM16.1468 105.851L15.3798 106.493L15.3876 106.502L15.3956 106.511L16.1468 105.851ZM19.3206 73.7777L18.3872 73.4187L18.3844 73.4261L19.3206 73.7777ZM33.5695 44.9889L34.4252 45.5063L35.3884 43.9138L33.5287 43.9897L33.5695 44.9889ZM23.4227 46.7152L23.7873 47.6463L23.7873 47.6463L23.4227 46.7152ZM18.469 51.3573L17.5348 51.0007L17.0274 52.3299L18.4499 52.3572L18.469 51.3573ZM19.4684 52.6567L18.533 53.0102L18.5477 53.0492L18.5656 53.0867L19.4684 52.6567ZM17.9383 59.0286L18.452 59.8866L18.4707 59.8753L18.4889 59.8633L17.9383 59.0286ZM7.0725 58.1807L7.74834 57.4436L7.74834 57.4436L7.0725 58.1807ZM8.48124 44.7652L7.77479 44.0574L7.76813 44.0641L7.76159 44.0708L8.48124 44.7652ZM18.0592 39.3153L18.3633 40.2679L18.3723 40.265L18.3813 40.262L18.0592 39.3153ZM38.0578 37.9054L37.9425 38.8987L38.5546 38.9698L38.8932 38.4549L38.0578 37.9054ZM60.7165 11.1977L61.3716 11.9532L61.3721 11.9528L60.7165 11.1977ZM93.3914 2.98886L94.3653 3.21613L94.5484 2.43124L93.8204 2.08552L93.3914 2.98886ZM71.498 96.7954L71.4789 97.7953L72.288 97.8107L72.4719 97.0227L71.498 96.7954ZM53.0694 96.4431L52.0953 96.2169L51.8161 97.4193L53.0503 97.4429L53.0694 96.4431ZM63.8119 50.176L64.786 50.4021L64.9669 49.6232L64.2467 49.2755L63.8119 50.176ZM55.1707 46.8102L54.9023 47.7735V47.7735L55.1707 46.8102ZM46.7511 45.2409L46.8556 44.2464L46.1587 44.1732L45.852 44.8032L46.7511 45.2409ZM34.1047 77.261L33.1489 76.967L33.1474 76.9719L34.1047 77.261ZM73.1596 9.89933L74.1335 10.1265L74.6227 8.02958L72.7049 9.00869L73.1596 9.89933ZM61.4313 20.6851L60.6413 20.0719L60.6397 20.074L61.4313 20.6851ZM49.5439 39.7893L48.6561 39.3291L48.053 40.4924L49.3343 40.7671L49.5439 39.7893ZM65.0714 44.567L64.6666 45.4814L65.7708 45.9703L66.0452 44.7942L65.0714 44.567ZM30.6505 110.609L30.6696 109.609C27.564 109.55 24.8689 109.246 22.5749 108.709L22.3467 109.682L22.1185 110.656C24.5827 111.233 27.4234 111.548 30.6314 111.609L30.6505 110.609ZM22.3467 109.682L22.5749 108.709C20.4164 108.203 18.5274 107.045 16.898 105.191L16.1468 105.851L15.3956 106.511C17.2745 108.649 19.5187 110.046 22.1185 110.656L22.3467 109.682ZM16.1468 105.851L16.9138 105.209C15.4672 103.48 14.6846 100.72 14.7608 96.7347L13.761 96.7156L12.7612 96.6965C12.6808 100.901 13.4887 104.232 15.3798 106.493L16.1468 105.851ZM13.761 96.7156L14.7608 96.7347C14.8669 91.1885 16.6732 83.6688 20.2567 74.1294L19.3206 73.7777L18.3844 73.4261C14.7737 83.038 12.8738 90.8102 12.7612 96.6965L13.761 96.7156ZM19.3206 73.7777L20.2539 74.1367C23.9132 64.6226 28.6359 55.0792 34.4252 45.5063L33.5695 44.9889L32.7139 44.4714C26.8693 54.1356 22.0927 63.7847 18.3872 73.4187L19.3206 73.7777ZM33.5695 44.9889L33.5287 43.9897C29.205 44.1662 25.6982 44.7502 23.0581 45.784L23.4227 46.7152L23.7873 47.6463C26.1348 46.7271 29.3926 46.1602 33.6103 45.988L33.5695 44.9889ZM23.4227 46.7152L23.0581 45.784C20.3539 46.8429 18.4622 48.5713 17.5348 51.0007L18.469 51.3573L19.4033 51.714C20.0931 49.9068 21.5039 48.5405 23.7873 47.6463L23.4227 46.7152ZM18.469 51.3573L18.4499 52.3572C18.1724 52.3518 18.0898 52.1767 18.1822 52.2967C18.2618 52.4003 18.385 52.6188 18.533 53.0102L19.4684 52.6567L20.4038 52.3031C20.2268 51.8349 20.021 51.407 19.7675 51.0774C19.5267 50.7643 19.1069 50.3693 18.4882 50.3575L18.469 51.3573ZM19.4684 52.6567L18.5656 53.0867C18.9102 53.8103 19.072 54.5566 19.0571 55.3373L20.0569 55.3564L21.0567 55.3755C21.0776 54.2792 20.8471 53.2258 20.3712 52.2266L19.4684 52.6567ZM20.0569 55.3564L19.0571 55.3373C19.0345 56.5144 18.5213 57.446 17.3876 58.1939L17.9383 59.0286L18.4889 59.8633C20.1213 58.7864 21.0205 57.2699 21.0567 55.3755L20.0569 55.3564ZM17.9383 59.0286L17.4246 58.1706C16.2424 58.8784 14.7245 59.2472 12.8139 59.2107L12.7947 60.2105L12.7756 61.2103C14.9602 61.2521 16.8714 60.8329 18.452 59.8866L17.9383 59.0286ZM12.7947 60.2105L12.8139 59.2107C10.609 59.1685 8.95514 58.5502 7.74834 57.4436L7.0725 58.1807L6.39666 58.9177C8.04173 60.4262 10.2027 61.1611 12.7756 61.2103L12.7947 60.2105ZM7.0725 58.1807L7.74834 57.4436C6.5823 56.3745 5.96035 54.8302 6.00194 52.6552L5.00212 52.6361L4.00231 52.617C3.95254 55.2198 4.71084 57.3719 6.39667 58.9178L7.0725 58.1807ZM5.00212 52.6361L6.00194 52.6552C6.05198 50.0386 7.08878 47.6486 9.20089 45.4595L8.48124 44.7652L7.76159 44.0708C5.34582 46.5747 4.06321 49.432 4.00231 52.617L5.00212 52.6361ZM8.48124 44.7652L9.18768 45.4729C11.3974 43.2674 14.4382 41.5209 18.3633 40.2679L18.0592 39.3153L17.7551 38.3627C13.6081 39.6865 10.2636 41.5733 7.77479 44.0574L8.48124 44.7652ZM18.0592 39.3153L18.3813 40.262C22.2949 38.9305 26.628 38.3029 31.3912 38.394L31.4103 37.3942L31.4295 36.3944C26.4665 36.2995 21.8988 36.9527 17.7371 38.3686L18.0592 39.3153ZM31.4103 37.3942L31.3912 38.394C33.1394 38.4274 35.3208 38.5943 37.9425 38.8987L38.0578 37.9054L38.1731 36.912C35.5149 36.6034 33.2646 36.4295 31.4295 36.3944L31.4103 37.3942ZM38.0578 37.9054L38.8932 38.4549C46.0632 27.5555 53.5582 18.7278 61.3716 11.9532L60.7165 11.1977L60.0614 10.4421C52.0795 17.3628 44.4687 26.3402 37.2223 37.3558L38.0578 37.9054ZM60.7165 11.1977L61.3721 11.9528C69.2597 5.1058 76.56 1.87487 83.2964 2.00368L83.3155 1.00386L83.3347 0.00404547C75.9083 -0.137957 68.1427 3.42699 60.061 10.4425L60.7165 11.1977ZM83.3155 1.00386L83.2964 2.00368C87.3041 2.08031 90.5101 2.72768 92.9625 3.89219L93.3914 2.98886L93.8204 2.08552C91.0288 0.759984 87.5175 0.0840279 83.3347 0.00404547L83.3155 1.00386ZM93.3914 2.98886L92.4176 2.76158L70.5242 96.5682L71.498 96.7954L72.4719 97.0227L94.3653 3.21613L93.3914 2.98886ZM71.498 96.7954L71.5172 95.7956L53.0885 95.4432L53.0694 96.4431L53.0503 97.4429L71.4789 97.7953L71.498 96.7954ZM53.0694 96.4431L54.0435 96.6692L64.786 50.4021L63.8119 50.176L62.8378 49.9498L52.0953 96.2169L53.0694 96.4431ZM63.8119 50.176L64.2467 49.2755C61.0778 47.7454 58.141 46.5995 55.439 45.8468L55.1707 46.8102L54.9023 47.7735C57.4639 48.487 60.2879 49.585 63.3771 51.0765L63.8119 50.176ZM55.1707 46.8102L55.439 45.8468C52.7487 45.0974 49.8869 44.5647 46.8556 44.2464L46.7511 45.2409L46.6467 46.2354C49.5778 46.5432 52.3291 47.0567 54.9023 47.7735L55.1707 46.8102ZM46.7511 45.2409L45.852 44.8032C40.7659 55.2502 36.5314 65.9715 33.1489 76.967L34.1047 77.261L35.0605 77.555C38.4124 66.6592 42.6088 56.0338 47.6502 45.6786L46.7511 45.2409ZM34.1047 77.261L33.1474 76.9719C29.8568 87.8678 28.1242 96.6851 27.996 103.389L28.9959 103.408L29.9957 103.427C30.1187 96.9921 31.792 88.3781 35.062 77.5501L34.1047 77.261ZM28.9959 103.408L27.996 103.389C27.9324 106.718 28.4882 109.387 29.8495 111.208L30.6505 110.609L31.4514 110.01C30.4826 108.714 29.9353 106.582 29.9957 103.427L28.9959 103.408ZM73.1596 9.89933L72.7049 9.00869C68.8119 10.9962 64.7953 14.7204 60.6413 20.0719L61.4313 20.6851L62.2212 21.2983C66.2927 16.053 70.0949 12.5868 73.6143 10.79L73.1596 9.89933ZM61.4313 20.6851L60.6397 20.074C56.5688 25.3471 52.5754 31.7687 48.6561 39.3291L49.5439 39.7893L50.4317 40.2495C54.3107 32.7669 58.2422 26.4524 62.2228 21.2962L61.4313 20.6851ZM49.5439 39.7893L49.3343 40.7671C55.409 42.0693 60.5152 43.6437 64.6666 45.4814L65.0714 44.567L65.4762 43.6526C61.1643 41.7439 55.9188 40.1331 49.7535 38.8115L49.5439 39.7893ZM65.0714 44.567L66.0452 44.7942L74.1335 10.1265L73.1596 9.89933L72.1858 9.67212L64.0975 44.3398L65.0714 44.567Z" fill="black" mask="url(#path-1-outside-1_288_13)"/>
</g>
<defs>
<filter id="filter0_d_288_13" x="0" y="0" width="98.5485" height="119.648" filterUnits="userSpaceOnUse" color-interpolation-filters="sRGB">
<feFlood flood-opacity="0" result="BackgroundImageFix"/>
<feColorMatrix in="SourceAlpha" type="matrix" values="0 0 0 0 0 0 0 0 0 0 0 0 0 0 0 0 0 0 127 0" result="hardAlpha"/>
<feOffset dy="4"/>
<feGaussianBlur stdDeviation="2"/>
<feComposite in2="hardAlpha" operator="out"/>
<feColorMatrix type="matrix" values="0 0 0 0 0 0 0 0 0 0 0 0 0 0 0 0 0 0 0.25 0"/>
<feBlend mode="normal" in2="BackgroundImageFix" result="effect1_dropShadow_288_13"/>
<feBlend mode="normal" in="SourceGraphic" in2="effect1_dropShadow_288_13" result="shape"/>
</filter>
</defs>
</svg>
